<?xml version="1.0" encoding="utf-8"?>
<!-- Generator: Adobe Illustrator 24.1.2, SVG Export Plug-In . SVG Version: 6.00 Build 0)  -->
<svg version="1.1" id="Layer_1" xmlns="http://www.w3.org/2000/svg" xmlns:xlink="http://www.w3.org/1999/xlink" x="0px" y="0px"
	 viewBox="0 0 84.7 70.1" style="enable-background:new 0 0 84.7 70.1;" xml:space="preserve">
<style type="text/css">
	.st0{fill:#B2997D;}
</style>
<g>
	<g>
		<path class="st0" d="M75.6,61.1H9.1c-1.8,0-3.3-0.6-4.5-1.9c-1.2-1.2-1.9-2.8-1.9-4.5v-1c0-0.5,0.4-0.9,0.9-0.9h28.8
			c0.4,0,0.7,0.2,0.8,0.6l0.5,1.7c0.1,0.5-0.1,0.9-0.6,1.1c-0.5,0.1-0.9-0.1-1.1-0.6l-0.3-1.1H4.4v0.1c0,1.3,0.4,2.4,1.4,3.3
			c0.9,0.9,2,1.4,3.3,1.4h66.5c1.3,0,2.4-0.5,3.3-1.4c0.9-0.9,1.4-2,1.4-3.3v-0.1H52.9l-0.3,1.1c-0.1,0.5-0.6,0.7-1.1,0.6
			c-0.5-0.1-0.7-0.6-0.6-1.1l0.5-1.7c0.1-0.4,0.5-0.6,0.8-0.6h28.8c0.5,0,0.9,0.4,0.9,0.9v1c0,1.8-0.6,3.3-1.9,4.5
			C78.9,60.4,77.3,61.1,75.6,61.1z M47.3,54.5h-9.9c-0.5,0-0.9-0.4-0.9-0.9s0.4-0.9,0.9-0.9h9.9c0.5,0,0.9,0.4,0.9,0.9
			S47.8,54.5,47.3,54.5z M73,49.9c-0.5,0-0.9-0.4-0.9-0.9V13.2c0-0.7-0.2-1.2-0.7-1.7c-0.5-0.5-1-0.7-1.7-0.7c0,0,0,0,0,0H15
			c0,0,0,0,0,0c-0.7,0-1.2,0.2-1.7,0.7c-0.5,0.5-0.7,1-0.7,1.7v35.9c0,0.5-0.4,0.9-0.9,0.9c-0.5,0-0.9-0.4-0.9-0.9V13.2
			c0-1.1,0.4-2.1,1.2-2.9C12.8,9.4,13.8,9,14.9,9c0,0,0,0,0,0h54.7c0,0,0,0,0,0c1.1,0,2.1,0.4,2.9,1.2c0.8,0.8,1.2,1.8,1.2,2.9v35.9
			C73.9,49.5,73.5,49.9,73,49.9z M68.5,47.1H16.1c-0.5,0-0.9-0.4-0.9-0.9s0.4-0.9,0.9-0.9h52.4c0.5,0,0.9,0.4,0.9,0.9
			S69,47.1,68.5,47.1z M55,40.8c-0.5,0-1,0-1.4-0.1c-0.4-0.1-0.7-0.5-0.7-0.9l0-0.8c0-0.3-0.1-0.4-0.2-0.4l-1-0.6
			c-0.1,0-0.2-0.1-0.5,0.1l-0.6,0.4c-0.4,0.2-0.8,0.2-1.1-0.2c-0.7-0.7-1.2-1.6-1.5-2.5c-0.1-0.4,0-0.9,0.4-1.1l0.7-0.3
			c0.2-0.1,0.2-0.3,0.2-0.4l0-1.1c0-0.1,0-0.2-0.3-0.4l-0.6-0.3c-0.4-0.2-0.5-0.6-0.4-1c0.3-0.9,0.8-1.7,1.5-2.5
			c0.3-0.3,0.7-0.4,1.1-0.2l0.6,0.4c0.3,0.1,0.4,0.1,0.5,0l1-0.6c0.1,0,0.2-0.1,0.2-0.5l0-0.7c0-0.4,0.3-0.8,0.7-0.9
			c0.5-0.1,0.9-0.1,1.4-0.1c0.5,0,1,0,1.4,0.1c0.4,0.1,0.7,0.5,0.7,0.9l0,0.8c0,0.3,0.1,0.4,0.2,0.4l1,0.6c0.1,0,0.2,0.1,0.5-0.1
			l0.6-0.4c0.4-0.2,0.8-0.2,1.1,0.2c0.7,0.7,1.2,1.6,1.5,2.5c0.1,0.4,0,0.8-0.4,1l-0.7,0.4c-0.2,0.2-0.2,0.3-0.2,0.4v1.1
			c0,0.1,0,0.2,0.3,0.4l0.6,0.3c0.4,0.2,0.6,0.6,0.4,1.1c-0.3,0.9-0.8,1.7-1.5,2.5c-0.3,0.3-0.8,0.4-1.1,0.2l-0.6-0.4
			c-0.2-0.1-0.4-0.1-0.4,0l-1,0.6c0,0-0.2,0.1-0.2,0.5l0,0.7c0,0.4-0.3,0.8-0.7,0.9C56,40.7,55.6,40.8,55,40.8
			C55.1,40.8,55.1,40.8,55,40.8z M55.1,39c0.1,0,0.2,0,0.4,0c0-1.1,0.6-1.6,1-1.9l1-0.6c0.5-0.3,1.2-0.5,2.2,0l0,0
			c0.1-0.2,0.3-0.4,0.4-0.6c-0.9-0.6-1.1-1.3-1.1-1.9v-1.2c0-0.5,0.2-1.3,1.1-1.9l0,0c-0.1-0.2-0.2-0.4-0.4-0.6
			c-1,0.5-1.7,0.3-2.2,0.1l-1-0.6c-0.5-0.3-1-0.8-1.1-1.9l0,0c-0.2,0-0.5,0-0.7,0c0,1.1-0.6,1.6-1,1.9l-1,0.6
			c-0.5,0.3-1.2,0.5-2.2,0l0,0c-0.1,0.2-0.3,0.4-0.4,0.6c0.9,0.6,1.1,1.3,1.2,1.9l0,1.2c0,0.6-0.2,1.3-1.1,1.9l0,0
			c0.1,0.2,0.2,0.4,0.4,0.6c1-0.5,1.7-0.3,2.2-0.1l1,0.6c0.5,0.3,1,0.9,1.1,1.9l0,0C54.8,39,54.9,39,55.1,39z M35.2,40.2
			c-0.8,0-1.6-0.1-2.4-0.3c-0.4-0.1-0.7-0.4-0.7-0.9l0-2.3c0-0.1,0-0.3-0.4-0.5c0,0,0,0,0,0l-1.2-0.6c-0.4-0.1-0.5,0-0.6,0l-1.7,1.4
			c-0.3,0.3-0.8,0.3-1.1,0c-1.2-1-2.3-2.3-3-3.8c-0.2-0.4-0.1-0.8,0.2-1.1l1.8-1.4c0.1-0.1,0.2-0.2,0.2-0.6l-0.3-1.3
			c-0.1-0.4-0.3-0.4-0.4-0.5L23.3,28c-0.4-0.1-0.7-0.5-0.7-0.9c0-1.6,0.4-3.2,1.1-4.7c0.2-0.4,0.6-0.6,1-0.5l2.2,0.5
			c0.1,0,0.3,0,0.6-0.2c0,0,0,0,0-0.1l0.8-1.1c0.2-0.4,0.1-0.5,0.1-0.6l-1-2.1c-0.2-0.4-0.1-0.8,0.3-1.1c1-0.7,2.1-1.3,3.4-1.8
			c0.3-0.1,0.7-0.2,1-0.3c0.4-0.1,0.8,0.1,1,0.5l0.9,2c0.1,0.1,0.2,0.3,0.6,0.3c0,0,0,0,0,0H36c0.4,0,0.5-0.2,0.6-0.3l0.9-2
			c0.2-0.4,0.6-0.6,1-0.5c0.8,0.2,1.5,0.5,2.3,0.8c0.8,0.4,1.5,0.8,2.1,1.3c0.3,0.3,0.5,0.7,0.3,1.1l-1,2c0,0.1-0.1,0.3,0.1,0.6
			l0.9,1.1c0.3,0.3,0.5,0.3,0.6,0.2l2.2-0.5c0.4-0.1,0.8,0.1,1,0.5c0.1,0.3,0.2,0.6,0.3,0.9c0.4,1.3,0.7,2.6,0.7,3.8
			c0,0.4-0.3,0.8-0.7,0.9L45,28.5c-0.1,0-0.3,0.1-0.4,0.5l-0.3,1.3c0,0.4,0.1,0.5,0.2,0.6l1.8,1.4c0.3,0.3,0.4,0.7,0.2,1.1
			c-0.8,1.5-1.8,2.8-3,3.8c-0.3,0.3-0.8,0.3-1.1,0l-1.8-1.5c-0.1-0.1-0.2-0.2-0.6,0l-1.2,0.6c-0.4,0.2-0.4,0.4-0.4,0.5l0,2.2
			c0,0.4-0.3,0.8-0.7,0.9C36.8,40.1,36,40.2,35.2,40.2z M33.8,38.3c0.9,0.1,1.8,0.1,2.7,0l0-1.5c0-0.6,0.2-1.4,1.2-2
			c0,0,0.1-0.1,0.1-0.1l1.4-0.7c1.1-0.4,1.9,0,2.3,0.3l1.2,1c0.6-0.6,1.2-1.4,1.7-2.2l-1.2-0.9c-0.5-0.3-1-1-0.9-2.2
			c0,0,0-0.1,0-0.1l0.3-1.4c0,0,0-0.1,0-0.1c0.4-1.1,1.1-1.5,1.7-1.7l1.5-0.3c-0.1-0.9-0.3-1.7-0.6-2.6c0,0,0-0.1,0-0.1L44,24.2
			c-0.6,0.1-1.4,0.1-2.3-0.7c0,0-0.1-0.1-0.1-0.1l-0.9-1.1c0,0-0.1-0.1-0.1-0.2c-0.6-1-0.5-1.8-0.2-2.3l0.7-1.3
			c-0.4-0.2-0.8-0.5-1.2-0.7c-0.4-0.2-0.8-0.4-1.3-0.5l-0.6,1.3c-0.2,0.5-0.8,1.2-2,1.3c0,0-0.1,0-0.2,0h-1.5
			c-1.3-0.1-1.8-0.8-2-1.3l-0.6-1.3c-0.1,0-0.1,0-0.2,0.1c-0.8,0.3-1.6,0.7-2.3,1.1l0.7,1.4c0.3,0.5,0.5,1.4-0.2,2.4
			c0,0-0.1,0.1-0.1,0.1l-0.9,1.1c0,0-0.1,0.1-0.1,0.1c-0.8,0.9-1.7,0.9-2.3,0.7L25,23.8c-0.3,0.9-0.5,1.8-0.6,2.7l1.5,0.3
			c0.6,0.1,1.3,0.5,1.7,1.6c0,0,0,0.1,0,0.1l0.3,1.6c0.2,1.1-0.4,1.8-0.9,2.2L26,33.2c0.5,0.8,1,1.5,1.7,2.1l1.1-0.9
			c0.4-0.4,1.2-0.7,2.3-0.3l0.1,0l1.3,0.6c0,0,0.1,0,0.1,0c0,0,0.1,0.1,0.1,0.1c1,0.6,1.2,1.4,1.2,2L33.8,38.3z M34.6,19.8
			L34.6,19.8L34.6,19.8z M55,35.9c-0.5,0-0.9-0.4-0.9-0.9v-0.6h-0.6c-0.5,0-0.9-0.4-0.9-0.9s0.4-0.9,0.9-0.9h0.6V32
			c0-0.5,0.4-0.9,0.9-0.9s0.9,0.4,0.9,0.9v0.6h0.7c0.5,0,0.9,0.4,0.9,0.9s-0.4,0.9-0.9,0.9h-0.7V35C55.9,35.5,55.5,35.9,55,35.9z
			 M35.3,32.9c-1,0-1.9-0.2-2.7-0.7c-0.4-0.2-0.8-0.5-1.1-0.8c-1.1-1.1-1.6-2.4-1.6-3.8c0-1.5,0.5-2.8,1.6-3.8
			c0.3-0.3,0.7-0.6,1.1-0.9c0,0,0,0,0,0c0.8-0.5,1.7-0.7,2.7-0.7c0,0,0,0,0,0c1,0,1.9,0.2,2.7,0.7c0.4,0.2,0.8,0.5,1.1,0.9
			c1.1,1,1.6,2.3,1.6,3.8c0,1.5-0.5,2.8-1.6,3.8c-0.4,0.3-0.7,0.6-1.1,0.9C37.2,32.7,36.3,32.9,35.3,32.9z M33.4,24.3
			c-0.3,0.2-0.5,0.4-0.7,0.6c-0.7,0.7-1.1,1.6-1.1,2.6c0,1,0.4,1.9,1.1,2.6c0.2,0.2,0.5,0.4,0.8,0.6c0.6,0.3,1.2,0.5,1.9,0.5
			c0.7,0,1.3-0.2,1.8-0.5c0.3-0.2,0.5-0.4,0.8-0.6c0.7-0.7,1.1-1.6,1.1-2.6c0-1-0.4-1.9-1.1-2.6c-0.2-0.3-0.5-0.5-0.8-0.6
			c-0.5-0.3-1.1-0.5-1.8-0.5c0,0,0,0,0,0C34.6,23.9,34,24,33.4,24.3z M55.1,23.2c-1.1,0-2-0.4-2.8-1.2c-0.8-0.8-1.2-1.7-1.2-2.8
			c0-1.1,0.4-2,1.2-2.8s1.7-1.2,2.8-1.2c1.1,0,2,0.4,2.8,1.2c0.8,0.8,1.2,1.7,1.2,2.8c0,1.1-0.4,2-1.2,2.8S56.1,23.2,55.1,23.2z
			 M55.1,17c-0.6,0-1.1,0.2-1.6,0.6c-0.4,0.4-0.6,1-0.6,1.6c0,0.6,0.2,1.1,0.6,1.6c0.4,0.4,1,0.7,1.6,0.7c0.6,0,1.1-0.2,1.6-0.6
			c0.4-0.4,0.6-1,0.6-1.6c0-0.6-0.2-1.1-0.6-1.6C56.2,17.2,55.7,17,55.1,17z"/>
	</g>
</g>
</svg>
