<?xml version="1.0" encoding="utf-8"?>
<!-- Generator: Adobe Illustrator 24.1.2, SVG Export Plug-In . SVG Version: 6.00 Build 0)  -->
<svg version="1.1" id="Layer_1" xmlns="http://www.w3.org/2000/svg" xmlns:xlink="http://www.w3.org/1999/xlink" x="0px" y="0px"
	 viewBox="0 0 84.7 70.1" style="enable-background:new 0 0 84.7 70.1;" xml:space="preserve">
<style type="text/css">
	.st0{fill:#B2997D;}
</style>
<g>
	<g>
		<path class="st0" d="M75,63.5H9.6c-1.7,0-3.2-0.6-4.5-1.9c-1.2-1.2-1.8-2.7-1.9-4.5v-1c0-0.5,0.4-0.9,0.9-0.9h28.3
			c0.4,0,0.7,0.2,0.8,0.6l0.5,1.7c0.1,0.5-0.1,0.9-0.6,1.1c-0.5,0.1-0.9-0.1-1.1-0.6l-0.3-1.1H5v0.1c0,1.3,0.4,2.3,1.3,3.2
			c0.9,0.9,2,1.4,3.3,1.4H75c1.3,0,2.3-0.4,3.2-1.4c0.9-0.9,1.4-2,1.4-3.2v-0.1H52.8l-0.3,1.1c-0.1,0.5-0.6,0.7-1.1,0.6
			c-0.5-0.1-0.7-0.6-0.6-1.1l0.5-1.7c0.1-0.4,0.4-0.6,0.8-0.6h28.4c0.5,0,0.9,0.4,0.9,0.9v1c0,1.7-0.6,3.2-1.9,4.5
			C78.3,62.9,76.8,63.5,75,63.5z M47.2,57.1h-9.8c-0.5,0-0.9-0.4-0.9-0.9s0.4-0.9,0.9-0.9h9.8c0.5,0,0.9,0.4,0.9,0.9
			S47.7,57.1,47.2,57.1z M72.5,52.6c-0.5,0-0.9-0.4-0.9-0.9V16.4c0-0.7-0.2-1.2-0.7-1.7c-0.5-0.5-1-0.7-1.7-0.7h-4.2
			c-0.5,0-0.9-0.4-0.9-0.9c0-0.5,0.4-0.9,0.9-0.9h4.2c1.1,0,2.1,0.4,2.9,1.2c0.8,0.8,1.2,1.8,1.2,2.9v35.3
			C73.4,52.2,73,52.6,72.5,52.6z M12.2,52.6c-0.5,0-0.9-0.4-0.9-0.9V16.4c0-1.1,0.4-2.1,1.2-2.9c0.8-0.8,1.8-1.2,2.9-1.2
			c0,0,0,0,0,0h4.2c0.5,0,0.9,0.4,0.9,0.9c0,0.5-0.4,0.9-0.9,0.9h-4.2c0,0,0,0,0,0c-0.7,0-1.2,0.2-1.7,0.7c-0.5,0.5-0.7,1-0.7,1.7
			v35.3C13,52.2,12.6,52.6,12.2,52.6z M68.1,49.7H16.6c-0.5,0-0.9-0.4-0.9-0.9s0.4-0.9,0.9-0.9h6v-7.3c-1.9-0.9-3.1-2.3-3.5-4.2
			c-0.7-3.3-0.5-7.1,0.5-11.4c0.1-0.6,0.4-1.3,0.7-2c0.2-0.4,0.4-0.8,0.7-1.1c0.3-0.4,0.8-0.4,1.2-0.1c0.4,0.3,0.4,0.8,0.1,1.2
			c-0.2,0.2-0.3,0.5-0.5,0.8c-0.3,0.6-0.5,1.2-0.6,1.7c-1,4-1.1,7.6-0.5,10.6c0.3,1.5,1.3,2.6,3,3.2c0.3,0.1,0.6,0.4,0.6,0.8V48
			h11.3v-6.1c-2.3-1-3.7-2.6-4.2-4.9c-0.8-3.8-0.6-8.3,0.6-13.3c0.2-0.7,0.5-1.5,0.9-2.3c0.5-1.1,1.2-1.9,2-2.4
			c0.4-0.2,0.9-0.1,1.2,0.3c0.2,0.4,0.1,0.9-0.3,1.2c-0.5,0.3-0.9,0.8-1.3,1.6c-0.4,0.8-0.6,1.4-0.8,2c-1.2,4.8-1.4,9-0.6,12.6
			c0.4,1.9,1.6,3.1,3.6,3.8c0.3,0.1,0.6,0.4,0.6,0.8V48h9.9v-6.7c0-0.4,0.2-0.7,0.6-0.8c2.1-0.7,3.2-2,3.6-3.8
			c0.8-3.6,0.6-7.8-0.6-12.6c-0.1-0.6-0.4-1.2-0.8-2c-0.4-0.8-0.8-1.3-1.3-1.6c-0.4-0.2-0.6-0.8-0.3-1.2c0.2-0.4,0.8-0.6,1.2-0.3
			c0.8,0.5,1.5,1.3,2,2.4c0.4,0.9,0.7,1.6,0.9,2.3c1.2,5,1.4,9.5,0.6,13.3c-0.5,2.3-1.9,3.9-4.2,4.9V48h11.3v-7.8
			c0-0.4,0.2-0.7,0.6-0.8c1.7-0.6,2.7-1.6,3-3.2c0.6-3,0.5-6.6-0.5-10.6c-0.1-0.5-0.3-1-0.6-1.7c-0.2-0.3-0.3-0.6-0.5-0.8
			c-0.3-0.4-0.2-0.9,0.1-1.2c0.4-0.3,0.9-0.2,1.2,0.1c0.3,0.3,0.5,0.7,0.7,1.1c0.4,0.7,0.6,1.4,0.7,2c1,4.3,1.2,8.1,0.5,11.4
			c-0.4,1.9-1.6,3.4-3.5,4.2V48h6c0.5,0,0.9,0.4,0.9,0.9S68.6,49.7,68.1,49.7z M56.4,21.9c0,0-0.1,0-0.1,0l-0.2,0c0,0-0.1,0-0.1,0
			c-0.4,0-0.9-0.1-1.3-0.3c-0.7-0.3-1.4-0.8-1.9-1.6c-0.1-0.1-0.1-0.2-0.2-0.3c-0.8-1.2-1.2-2.6-1.2-4.2c0-0.7,0.1-1.3,0.3-1.9
			c0-0.1,0.1-0.3,0.2-0.4c0,0,0-0.1,0-0.1c0.2-0.4,0.5-0.8,0.8-1.2l0.1-0.2c0.1-0.1,0.1-0.1,0.2-0.2c0.9-0.8,1.9-1.2,3-1.2
			c0,0,0.1,0,0.1,0c0.1,0,0.2,0,0.2,0c1.1,0,2.1,0.4,3,1.2c0,0,0.1,0.1,0.2,0.2c0,0,0.1,0.1,0.1,0.1c0.1,0.1,0.1,0.1,0.1,0.2
			c0.3,0.3,0.5,0.7,0.7,1.1c0,0,0,0,0,0c0.1,0.2,0.2,0.3,0.2,0.5c0.2,0.6,0.3,1.2,0.3,1.9c0,1.6-0.4,3-1.2,4.2
			c-0.1,0.1-0.1,0.2-0.2,0.3c-0.6,0.7-1.2,1.3-2,1.6C57.3,21.8,56.9,21.8,56.4,21.9C56.4,21.9,56.4,21.9,56.4,21.9z M53.4,14.1
			c0,0.1-0.1,0.1-0.1,0.2c-0.1,0.4-0.2,0.8-0.2,1.3c0,1.3,0.3,2.3,0.9,3.2c0.1,0.1,0.1,0.1,0.2,0.2c0.4,0.5,0.8,0.8,1.2,1
			c0.2,0.1,0.5,0.1,0.7,0.2h0.2c0.3,0,0.5-0.1,0.7-0.2c0.4-0.2,0.9-0.5,1.2-1c0-0.1,0.1-0.1,0.1-0.2c0.6-0.9,0.9-1.9,0.9-3.2
			c0-0.5-0.1-0.9-0.2-1.3c0-0.1-0.1-0.1-0.1-0.2c0,0,0-0.1,0-0.1c-0.1-0.3-0.3-0.6-0.5-0.8c0,0,0,0-0.1-0.1L58.3,13
			c-0.6-0.5-1.2-0.8-1.9-0.8c0,0-0.1,0-0.2,0c-0.1,0-0.1,0-0.2,0c-0.7,0-1.3,0.3-1.8,0.8c0,0,0,0,0,0L54,13.2
			C53.8,13.4,53.6,13.7,53.4,14.1C53.5,14,53.5,14.1,53.4,14.1z M53.7,12.3L53.7,12.3L53.7,12.3z M28.5,21.9c0,0-0.1,0-0.1,0l-0.2,0
			c0,0-0.1,0-0.1,0c-0.4,0-0.9-0.1-1.3-0.3c-0.7-0.3-1.4-0.8-1.9-1.6c-0.1-0.1-0.1-0.2-0.2-0.3c-0.8-1.2-1.2-2.6-1.2-4.2
			c0-0.7,0.1-1.3,0.3-1.9c0-0.1,0.1-0.3,0.2-0.4c0,0,0-0.1,0-0.1c0.2-0.4,0.4-0.8,0.7-1.1c0-0.1,0.1-0.1,0.1-0.2
			c0.1,0,0.1-0.1,0.2-0.1c0,0,0.1-0.1,0.1-0.1c0.9-0.8,1.9-1.2,3-1.2c0,0,0.1,0,0.2,0c0,0,0.1,0,0.1,0c1.1,0,2.2,0.4,3,1.2
			c0.1,0,0.1,0.1,0.2,0.2l0.2,0.2c0,0,0,0,0,0c0.3,0.4,0.6,0.8,0.8,1.2c0,0,0,0,0,0c0.1,0.2,0.2,0.3,0.2,0.5
			c0.2,0.6,0.3,1.2,0.3,1.9c0,1.6-0.4,3-1.2,4.2c-0.1,0.1-0.1,0.2-0.2,0.3c-0.6,0.7-1.2,1.3-2,1.6C29.5,21.8,29,21.8,28.5,21.9
			C28.6,21.9,28.6,21.9,28.5,21.9z M25.6,14.1c0,0.1-0.1,0.1-0.1,0.2c-0.1,0.4-0.2,0.8-0.2,1.3c0,1.3,0.3,2.3,0.9,3.2
			c0.1,0.1,0.1,0.1,0.2,0.2c0.4,0.5,0.8,0.8,1.2,1c0.2,0.1,0.5,0.1,0.7,0.2h0.2c0.3,0,0.5-0.1,0.7-0.2c0.4-0.2,0.9-0.5,1.2-1
			c0-0.1,0.1-0.1,0.1-0.2c0.6-0.9,0.9-1.9,0.9-3.2c0-0.5-0.1-0.9-0.2-1.3c0-0.1-0.1-0.1-0.1-0.2c0,0,0-0.1,0-0.1
			c-0.1-0.3-0.3-0.6-0.5-0.8L30.4,13c-0.5-0.5-1.1-0.7-1.8-0.8c-0.1,0-0.1,0-0.2,0c-0.1,0-0.1,0-0.2,0c-0.7,0-1.4,0.3-1.9,0.8
			l-0.2,0.2c0,0,0,0-0.1,0.1C25.9,13.4,25.8,13.7,25.6,14.1C25.6,14,25.6,14.1,25.6,14.1z M42.3,19.7h-0.1c-0.6,0-1.1-0.1-1.6-0.3
			c-0.8-0.3-1.6-0.9-2.2-1.8c-0.1-0.1-0.2-0.2-0.2-0.3c-0.9-1.3-1.4-3-1.4-4.8l0,0c0-0.8,0.1-1.5,0.4-2.2c0.1-0.1,0.1-0.3,0.2-0.5
			c0,0,0-0.1,0-0.1c0.2-0.4,0.5-0.9,0.9-1.3c0-0.1,0.1-0.1,0.1-0.1c0.1-0.1,0.1-0.1,0.2-0.2c0.1-0.1,0.1-0.1,0.2-0.2
			c1-0.9,2.2-1.4,3.5-1.4c0,0,0.1,0,0.2,0c0.1,0,0.1,0,0.2,0C43.8,6.6,45,7,46,7.9C46,8,46.1,8.1,46.1,8.1c0.1,0,0.1,0.1,0.2,0.2
			c0,0,0.1,0.1,0.1,0.1c0.3,0.4,0.6,0.8,0.8,1.3c0,0,0,0.1,0,0.1c0.1,0.2,0.1,0.3,0.2,0.5c0.2,0.7,0.4,1.4,0.4,2.2
			c0,1.9-0.5,3.5-1.4,4.8c-0.1,0.1-0.1,0.2-0.2,0.3c-0.6,0.8-1.4,1.4-2.2,1.8c-0.5,0.2-1,0.3-1.5,0.3L42.3,19.7z M39.7,9.4
			C39.6,9.4,39.6,9.5,39.7,9.4c-0.3,0.4-0.6,0.7-0.7,1.1c0,0,0,0.1-0.1,0.1c0,0-0.1,0.1-0.1,0.3c-0.2,0.5-0.3,1-0.3,1.6c0,0,0,0,0,0
			c0,1.5,0.3,2.8,1.1,3.8c0.1,0.1,0.1,0.2,0.2,0.2c0.5,0.6,1,1,1.5,1.2c0.3,0.1,0.6,0.2,0.9,0.2l0.3,0c0.3,0,0.6-0.1,0.9-0.2
			c0.5-0.2,1.1-0.6,1.5-1.2c0.1-0.1,0.1-0.2,0.2-0.2c0.8-1.1,1.1-2.3,1.1-3.8c0-0.6-0.1-1.1-0.3-1.6c0-0.1-0.1-0.2-0.1-0.3
			c0,0,0,0,0-0.1c-0.2-0.4-0.4-0.7-0.7-1c0,0-0.1-0.1-0.1-0.1l-0.2-0.2c-0.7-0.6-1.5-0.9-2.4-0.9c0,0-0.1,0-0.1,0c0,0-0.1,0-0.1,0
			c0,0,0,0,0,0c-0.9,0-1.7,0.3-2.3,0.9L39.7,9.4z M37.6,12.4L37.6,12.4L37.6,12.4z"/>
	</g>
</g>
</svg>
