<?xml version="1.0" encoding="utf-8"?>
<!-- Generator: Adobe Illustrator 24.1.2, SVG Export Plug-In . SVG Version: 6.00 Build 0)  -->
<svg version="1.1" id="Layer_1" xmlns="http://www.w3.org/2000/svg" xmlns:xlink="http://www.w3.org/1999/xlink" x="0px" y="0px"
	 viewBox="0 0 84.7 70.1" style="enable-background:new 0 0 84.7 70.1;" xml:space="preserve">
<style type="text/css">
	.st0{fill:#B2997D;}
</style>
<g>
	<path class="st0" d="M11.1,64c-0.3,0-0.6,0-0.9,0c-2-0.2-3.8-1.1-5.3-2.6c-1.7-1.7-2.5-3.7-2.6-6l0-40.4c0-2.4,0.8-4.5,2.5-6.3
		c0,0,0,0,0,0L5,8.6C6.8,6.9,8.9,6,11.3,6.1h62.1c0,0,0,0,0,0c2.4,0,4.5,0.9,6.3,2.6c1.8,1.8,2.7,3.9,2.6,6.3v40.2
		c0,2.4-0.9,4.5-2.6,6.2l-0.1,0.1c-1.7,1.7-3.8,2.6-6.2,2.6c0,0,0,0,0,0H11.3C11.2,64,11.2,64,11.1,64z M5.6,9.4l0.7,0.7
		c-1.3,1.4-2,3-2,4.9v40.4c0,1.8,0.7,3.3,2,4.6c1.2,1.2,2.6,1.9,4.1,2c0.3,0,0.5,0,0.8,0h62.1c0,0,0,0,0,0c1.9,0,3.4-0.7,4.8-2
		l0.1-0.1c1.4-1.4,2-2.9,2-4.8V15c0-1.9-0.7-3.5-2.1-4.9c-1.4-1.4-2.9-2-4.9-2c0,0,0,0,0,0H11.3c-1.9,0-3.5,0.6-4.9,2L5.6,9.4z"/>
</g>
<g>
	<path class="st0" d="M42.3,36.8c-0.6,0-1-0.4-1-1l0-3.7c0-0.3,0.1-0.5,0.3-0.7c0.2-0.2,0.5-0.3,0.7-0.3c3.3,0.3,3.9-1.1,4.1-1.5
		c0.3-0.7,0.3-1.3,0-1.8c-0.5-1-2-1.9-4.4-2.6c0,0-0.1,0-0.1,0c-2.9-0.9-4.7-2.1-5.5-3.6c-0.5-1-0.5-2.2,0-3.5c0.6-1.4,2-3,5.9-2.8
		c3.2,0.2,5.3,1.4,6.2,3.5c0.2,0.5,0,1.1-0.6,1.3c-0.5,0.2-1.1,0-1.3-0.6c-0.5-1.3-2-2.1-4.4-2.2c-3.2-0.2-3.7,1.1-3.9,1.5
		c-0.3,0.7-0.3,1.3,0,1.8c0.5,1,2,1.9,4.3,2.6c3.1,0.9,4.9,2.1,5.7,3.7c0.5,1,0.5,2.2,0,3.5c-0.5,1.3-1.8,2.8-5,2.8v2.7
		C43.3,36.4,42.8,36.8,42.3,36.8z"/>
</g>
<g>
	<path class="st0" d="M42.3,17.2C42.3,17.2,42.3,17.2,42.3,17.2c-0.6,0-1-0.5-1-1l0-3.7c0-0.6,0.4-1,1-1c0,0,0,0,0,0
		c0.6,0,1,0.5,1,1l0,3.7C43.3,16.8,42.8,17.2,42.3,17.2z"/>
</g>
<g>
	<path class="st0" d="M70.1,29.3c-0.6,0-1-0.4-1-1v-9.4h-9.4c-0.6,0-1-0.4-1-1s0.4-1,1-1h10.4c0.6,0,1,0.4,1,1v10.4
		C71.1,28.9,70.6,29.3,70.1,29.3z"/>
</g>
<g>
	<path class="st0" d="M70,57h-9.5c-0.6,0-1-0.4-1-1V33.2c0-0.6,0.4-1,1-1s1,0.4,1,1V55H69V34.4c0-0.6,0.4-1,1-1s1,0.4,1,1V56
		C71,56.6,70.6,57,70,57z"/>
</g>
<g>
	<path class="st0" d="M42.3,33.7c-0.4,0-0.8-0.3-0.9-0.6c-2.7-0.4-4.5-1.5-5.3-3.4c-0.2-0.5,0-1.1,0.6-1.3c0.5-0.2,1.1,0,1.3,0.6
		c0.5,1.3,2,2.1,4.4,2.2c0.5,0,0.9,0.5,0.9,1v0.5C43.3,33.2,42.8,33.7,42.3,33.7z"/>
</g>
<g>
	<path class="st0" d="M14.6,48.9c-0.3,0-0.6-0.1-0.7-0.3c-0.4-0.4-0.3-1,0.1-1.4l15.2-13.5c0.4-0.3,0.9-0.3,1.3,0l10.2,9l28.8-25.5
		c0.4-0.4,1-0.3,1.4,0.1c0.4,0.4,0.3,1-0.1,1.4L41.3,44.7c-0.4,0.3-0.9,0.3-1.3,0l-10.2-9L15.2,48.6C15,48.8,14.8,48.9,14.6,48.9z"
		/>
</g>
<g>
	<path class="st0" d="M42.3,33.1L42.3,33.1c-0.6,0-1-0.4-1-1c0-0.6,0.4-1,1-1s1,0.4,1,1C43.3,32.7,42.8,33.1,42.3,33.1z"/>
</g>
<g>
	<path class="st0" d="M39.4,57h-9.5c-0.6,0-1-0.4-1-1V41.9c0-0.6,0.4-1,1-1s1,0.4,1,1V55h7.5v-4.7c0-0.6,0.4-1,1-1s1,0.4,1,1V56
		C40.4,56.6,39.9,57,39.4,57z"/>
</g>
<g>
	<path class="st0" d="M54.7,57h-9.5c-0.6,0-1-0.4-1-1v-9.2c0-0.6,0.4-1,1-1s1,0.4,1,1V55h7.5V38.4c0-0.6,0.4-1,1-1s1,0.4,1,1V56
		C55.7,56.6,55.3,57,54.7,57z"/>
</g>
<g>
	<path class="st0" d="M24.1,57h-9.5c-0.6,0-1-0.4-1-1v-1.3c0-0.6,0.4-1,1-1s1,0.4,1,1V55h7.5v-8.7c0-0.6,0.4-1,1-1s1,0.4,1,1V56
		C25.1,56.6,24.6,57,24.1,57z"/>
</g>
</svg>
